<?xml version="1.0" standalone="no"?>
<!DOCTYPE svg PUBLIC "-//W3C//DTD SVG 20010904//EN"
 "http://www.w3.org/TR/2001/REC-SVG-20010904/DTD/svg10.dtd">
<svg version="1.0" xmlns="http://www.w3.org/2000/svg"
 width="148.000000pt" height="16.000000pt" viewBox="0 0 148.000000 16.000000"
 preserveAspectRatio="xMidYMid meet">

<g transform="translate(0.000000,16.000000) scale(0.100000,-0.100000)"
fill="#000000" stroke="none">
<path d="M44 148 c-30 -14 -48 -51 -40 -82 6 -25 42 -66 58 -66 13 0 9 45 -4
59 -10 11 -10 14 0 18 6 3 12 13 12 24 0 22 23 35 41 24 8 -6 7 -10 -5 -17
-21 -12 -21 -28 1 -28 15 0 15 -1 0 -18 -10 -10 -17 -28 -17 -40 0 -19 3 -20
24 -11 51 24 58 88 14 129 -24 22 -51 25 -84 8z"/>
<path d="M898 149 c-14 -8 -18 -23 -18 -67 0 -32 5 -63 12 -70 7 -7 36 -12 64
-12 62 0 84 21 84 80 0 57 -23 80 -78 80 -26 0 -55 -5 -64 -11z m106 -5 c23
-9 23 -119 0 -128 -24 -9 -73 -7 -95 4 -26 15 -28 104 -1 119 19 12 72 14 96
5z"/>
<path d="M932 108 c-25 -25 -6 -68 30 -68 9 0 22 9 28 20 22 40 -26 80 -58 48z
m46 -22 c5 -24 -10 -38 -31 -30 -20 7 -23 40 -4 47 19 8 32 2 35 -17z"/>
<path d="M1322 83 l3 -78 70 0 70 0 3 78 3 77 -76 0 -76 0 3 -77z m40 42 c0
-5 -5 -11 -11 -13 -6 -2 -11 4 -11 13 0 9 5 15 11 13 6 -2 11 -8 11 -13z m-2
-60 c0 -19 -4 -35 -10 -35 -5 0 -10 16 -10 35 0 19 5 35 10 35 6 0 10 -16 10
-35z m90 0 c0 -19 -4 -35 -10 -35 -5 0 -10 11 -10 25 0 16 -6 25 -15 25 -9 0
-15 -9 -15 -25 0 -14 -4 -25 -10 -25 -5 0 -10 16 -10 35 0 33 2 35 35 35 33 0
35 -2 35 -35z"/>
<path d="M521 123 c-8 -15 -14 -16 -40 -6 -29 10 -31 10 -31 -11 0 -12 6 -31
14 -42 10 -13 11 -23 4 -31 -8 -10 -3 -13 22 -13 34 0 90 46 90 73 0 9 3 22 6
31 9 23 -52 22 -65 -1z"/>
</g>
</svg>
